<svg xmlns="http://www.w3.org/2000/svg" xmlns:xlink="http://www.w3.org/1999/xlink" version="1.1" width="256" height="256" viewBox="0 0 256 256" xml:space="preserve">

<defs>
</defs>
<g style="stroke: none; stroke-width: 0; stroke-dasharray: none; stroke-linecap: butt; stroke-linejoin: miter; stroke-miterlimit: 10; fill: none; fill-rule: nonzero; opacity: 1;" transform="translate(1.4065934065934016 1.4065934065934016) scale(2.81 2.81)" >
	<path d="M 59.081 88.869 c -17.048 0 -30.918 -13.869 -30.918 -30.919 c 0 -21.704 17.405 -41.77 28.923 -55.048 l 1.258 -1.451 c 0.37 -0.429 1.105 -0.429 1.475 0 l 1.257 1.45 C 72.594 16.18 90 36.245 90 57.951 C 90 75 76.13 88.869 59.081 88.869 z" style="stroke: none; stroke-width: 1; stroke-dasharray: none; stroke-linecap: butt; stroke-linejoin: miter; stroke-miterlimit: 10; fill: rgb(102,219,255); fill-rule: nonzero; opacity: 1;" transform=" matrix(1 0 0 1 0 0) " stroke-linecap="round" />
	<path d="M 23.505 38.038 c -0.458 0 -0.919 -0.157 -1.296 -0.478 c -6.451 -5.495 -12.461 -5.495 -18.912 0 c -0.84 0.717 -2.103 0.615 -2.819 -0.226 s -0.615 -2.103 0.226 -2.819 c 7.883 -6.715 16.217 -6.715 24.1 0 c 0.841 0.716 0.942 1.979 0.226 2.819 C 24.633 37.799 24.071 38.038 23.505 38.038 z" style="stroke: none; stroke-width: 1; stroke-dasharray: none; stroke-linecap: butt; stroke-linejoin: miter; stroke-miterlimit: 10; fill: rgb(210,247,255); fill-rule: nonzero; opacity: 1;" transform=" matrix(1 0 0 1 0 0) " stroke-linecap="round" />
	<path d="M 34.274 42.625 c -1.861 0 -3.726 -0.358 -5.59 -1.075 c -1.031 -0.397 -1.545 -1.554 -1.148 -2.585 c 0.397 -1.031 1.555 -1.544 2.585 -1.148 c 4.504 1.733 8.951 0.654 13.595 -3.301 c 7.883 -6.714 16.216 -6.715 24.1 0 c 0.841 0.716 0.942 1.979 0.226 2.819 c -0.717 0.841 -1.98 0.941 -2.819 0.226 c -6.451 -5.495 -12.46 -5.495 -18.913 0 C 42.35 40.933 38.32 42.625 34.274 42.625 z" style="stroke: none; stroke-width: 1; stroke-dasharray: none; stroke-linecap: butt; stroke-linejoin: miter; stroke-miterlimit: 10; fill: rgb(210,247,255); fill-rule: nonzero; opacity: 1;" transform=" matrix(1 0 0 1 0 0) " stroke-linecap="round" />
	<path d="M 34.242 76.527 c -4.044 0 -8.072 -1.692 -12.033 -5.067 c -6.451 -5.495 -12.461 -5.495 -18.912 0 c -0.84 0.716 -2.103 0.616 -2.819 -0.226 c -0.716 -0.841 -0.615 -2.104 0.226 -2.819 c 7.883 -6.715 16.217 -6.715 24.1 0 c 4.793 4.083 9.387 5.1 14.049 3.117 c 1.018 -0.436 2.191 0.041 2.624 1.056 c 0.433 1.017 -0.04 2.191 -1.056 2.624 C 38.361 76.089 36.299 76.527 34.242 76.527 z" style="stroke: none; stroke-width: 1; stroke-dasharray: none; stroke-linecap: butt; stroke-linejoin: miter; stroke-miterlimit: 10; fill: rgb(210,247,255); fill-rule: nonzero; opacity: 1;" transform=" matrix(1 0 0 1 0 0) " stroke-linecap="round" />
	<path d="M 66.518 71.938 c -0.459 0 -0.92 -0.157 -1.296 -0.478 c -6.451 -5.496 -12.46 -5.496 -18.913 0 c -0.84 0.716 -2.103 0.616 -2.819 -0.226 c -0.716 -0.841 -0.615 -2.104 0.226 -2.819 c 7.883 -6.714 16.216 -6.716 24.1 0 c 0.841 0.716 0.942 1.979 0.226 2.819 C 67.646 71.699 67.083 71.938 66.518 71.938 z" style="stroke: none; stroke-width: 1; stroke-dasharray: none; stroke-linecap: butt; stroke-linejoin: miter; stroke-miterlimit: 10; fill: rgb(210,247,255); fill-rule: nonzero; opacity: 1;" transform=" matrix(1 0 0 1 0 0) " stroke-linecap="round" />
	<path d="M 77.271 59.567 c -4.057 0 -8.111 -1.702 -12.05 -5.058 c -6.454 -5.497 -12.463 -5.495 -18.913 0 c -7.883 6.715 -16.218 6.715 -24.1 0 c -6.451 -5.495 -12.461 -5.495 -18.912 0 c -0.84 0.716 -2.103 0.616 -2.819 -0.226 c -0.716 -0.841 -0.615 -2.104 0.226 -2.819 c 7.883 -6.715 16.217 -6.715 24.1 0 c 6.451 5.496 12.461 5.496 18.913 0 c 7.881 -6.714 16.216 -6.715 24.1 0 c 3.195 2.723 6.377 4.103 9.456 4.103 c 1.104 0 2 0.896 2 2 S 78.376 59.567 77.271 59.567 z" style="stroke: none; stroke-width: 1; stroke-dasharray: none; stroke-linecap: butt; stroke-linejoin: miter; stroke-miterlimit: 10; fill: rgb(210,247,255); fill-rule: nonzero; opacity: 1;" transform=" matrix(1 0 0 1 0 0) " stroke-linecap="round" />
</g>
</svg>